<?xml version="1.0" encoding="UTF-8" standalone="no"?>
<!DOCTYPE svg PUBLIC "-//W3C//DTD SVG 1.1//EN" "http://www.w3.org/Graphics/SVG/1.1/DTD/svg11.dtd">
<svg width="100%" height="100%" viewBox="0 0 50 69" version="1.1" xmlns="http://www.w3.org/2000/svg" xmlns:xlink="http://www.w3.org/1999/xlink" xml:space="preserve" xmlns:serif="http://www.serif.com/" style="fill-rule:evenodd;clip-rule:evenodd;stroke-linecap:round;stroke-linejoin:round;stroke-miterlimit:1.5;">
    <rect id="Kindle" x="0" y="0" width="49.309" height="68.274" style="fill:none;"/>
    <clipPath id="_clip1">
        <rect x="0" y="0" width="49.309" height="68.274"/>
    </clipPath>
    <g clip-path="url(#_clip1)">
        <g id="Text">
            <path d="M10.496,27.629l19.885,0" style="fill:none;stroke:#ff7684;stroke-width:1px;"/>
            <path d="M10.496,24.046l28.317,0" style="fill:none;stroke:#ff7684;stroke-width:1px;"/>
            <path d="M10.496,35.055l28.317,0" style="fill:none;stroke:#ff7684;stroke-width:1px;"/>
            <path d="M10.496,42.572l28.317,0" style="fill:none;stroke:#ff7684;stroke-width:1px;"/>
            <path d="M20.669,20.463l18.144,0" style="fill:none;stroke:#ff7684;stroke-width:1px;"/>
            <path d="M10.496,31.456l28.317,0" style="fill:none;stroke:#ff7684;stroke-width:1px;"/>
            <path d="M10.496,38.883l26.279,0" style="fill:none;stroke:#ff7684;stroke-width:1px;"/>
            <path d="M10.496,46.4l25.265,0" style="fill:none;stroke:#ff7684;stroke-width:1px;"/>
            <path d="M14.824,21.179c-0.09,-0.24 -0.176,-0.476 -0.256,-0.708c-0.08,-0.232 -0.162,-0.468 -0.248,-0.708l-2.512,0l-0.504,1.416l-0.808,0c0.214,-0.587 0.414,-1.13 0.6,-1.628c0.187,-0.499 0.37,-0.972 0.548,-1.42c0.179,-0.448 0.356,-0.876 0.532,-1.284c0.176,-0.408 0.36,-0.812 0.552,-1.212l0.712,0c0.192,0.4 0.376,0.804 0.552,1.212c0.176,0.408 0.354,0.836 0.532,1.284c0.179,0.448 0.362,0.921 0.548,1.42c0.187,0.498 0.387,1.041 0.6,1.628l-0.848,0Zm-0.728,-2.056c-0.17,-0.464 -0.34,-0.914 -0.508,-1.348c-0.168,-0.435 -0.342,-0.852 -0.524,-1.252c-0.186,0.4 -0.364,0.817 -0.532,1.252c-0.168,0.434 -0.334,0.884 -0.5,1.348l2.064,0Z" style="fill:#ff7684;fill-rule:nonzero;"/>
            <path d="M17.784,20.643c0.176,0 0.332,-0.004 0.468,-0.012c0.136,-0.008 0.25,-0.023 0.34,-0.044l0,-1.24c-0.053,-0.027 -0.14,-0.05 -0.26,-0.068c-0.12,-0.019 -0.265,-0.028 -0.436,-0.028c-0.112,0 -0.23,0.008 -0.356,0.024c-0.125,0.016 -0.24,0.049 -0.344,0.1c-0.104,0.05 -0.19,0.12 -0.26,0.208c-0.069,0.088 -0.104,0.204 -0.104,0.348c0,0.266 0.086,0.452 0.256,0.556c0.171,0.104 0.403,0.156 0.696,0.156Zm-0.064,-3.728c0.299,0 0.551,0.038 0.756,0.116c0.206,0.077 0.371,0.186 0.496,0.328c0.126,0.141 0.215,0.309 0.268,0.504c0.054,0.194 0.08,0.409 0.08,0.644l0,2.6c-0.064,0.01 -0.153,0.025 -0.268,0.044c-0.114,0.018 -0.244,0.036 -0.388,0.052c-0.144,0.016 -0.3,0.03 -0.468,0.044c-0.168,0.013 -0.334,0.02 -0.5,0.02c-0.234,0 -0.45,-0.024 -0.648,-0.072c-0.197,-0.048 -0.368,-0.124 -0.512,-0.228c-0.144,-0.104 -0.256,-0.242 -0.336,-0.412c-0.08,-0.171 -0.12,-0.376 -0.12,-0.616c0,-0.23 0.047,-0.427 0.14,-0.592c0.094,-0.166 0.22,-0.299 0.38,-0.4c0.16,-0.102 0.347,-0.176 0.56,-0.224c0.214,-0.048 0.438,-0.072 0.672,-0.072c0.075,0 0.152,0.004 0.232,0.012c0.08,0.008 0.156,0.018 0.228,0.032c0.072,0.013 0.135,0.025 0.188,0.036c0.054,0.01 0.091,0.018 0.112,0.024l0,-0.208c0,-0.123 -0.013,-0.244 -0.04,-0.364c-0.026,-0.12 -0.074,-0.227 -0.144,-0.32c-0.069,-0.094 -0.164,-0.168 -0.284,-0.224c-0.12,-0.056 -0.276,-0.084 -0.468,-0.084c-0.245,0 -0.46,0.017 -0.644,0.052c-0.184,0.034 -0.321,0.07 -0.412,0.108l-0.088,-0.616c0.096,-0.043 0.256,-0.084 0.48,-0.124c0.224,-0.04 0.467,-0.06 0.728,-0.06Z" style="fill:#ff7684;fill-rule:nonzero;"/>
        </g>
        <path id="Outer" d="M48.809,6.028c0,-3.051 -2.477,-5.528 -5.528,-5.528l-37.253,0c-3.051,0 -5.528,2.477 -5.528,5.528l0,56.218c0,3.051 2.477,5.528 5.528,5.528l37.253,0c3.051,0 5.528,-2.477 5.528,-5.528l0,-56.218Z" style="fill:none;stroke:#b8eeea;stroke-width:1px;"/>
        <path id="Inner" d="M47.228,7.188c0,-2.851 -2.315,-5.166 -5.167,-5.166l-34.813,0c-2.851,0 -5.166,2.315 -5.166,5.166l0,53.898c0,2.851 2.315,5.166 5.166,5.166l34.813,0c2.852,0 5.167,-2.315 5.167,-5.166l0,-53.898Z" style="fill:none;stroke:#b8eeea;stroke-width:1px;"/>
        <path id="Screen" d="M41.969,8.081c0,-0.345 -0.281,-0.626 -0.626,-0.626l-33.376,0c-0.346,0 -0.626,0.281 -0.626,0.626l0,45.872c0,0.345 0.28,0.626 0.626,0.626l33.376,0c0.345,0 0.626,-0.281 0.626,-0.626l0,-45.872Z" style="fill:none;stroke:#b8eeea;stroke-width:1px;"/>
        <path id="Button" d="M42.057,59.138c0,-0.427 -0.347,-0.775 -0.775,-0.775l-3.595,0c-0.427,0 -0.774,0.348 -0.774,0.775l0,3.595c0,0.428 0.347,0.775 0.774,0.775l3.595,0c0.428,0 0.775,-0.347 0.775,-0.775l0,-3.595Z" style="fill:none;stroke:#b8eeea;stroke-width:1px;"/>
    </g>
</svg>
